<svg width="120" height="120" viewBox="0 0 120 120" fill="none" xmlns="http://www.w3.org/2000/svg">
  <defs>
    <radialGradient id="core-glow" cx="0" cy="0" r="1" gradientUnits="userSpaceOnUse" gradientTransform="translate(60 60) scale(42)">
      <stop offset="0" stop-color="#FFFFFF" stop-opacity="0.95" />
      <stop offset="0.45" stop-color="#A47CFF" stop-opacity="0.75" />
      <stop offset="1" stop-color="#0B1024" stop-opacity="0" />
    </radialGradient>
    <linearGradient id="petal-gradient" x1="60" y1="8" x2="60" y2="112" gradientUnits="userSpaceOnUse">
      <stop offset="0" stop-color="#FF9ECF" />
      <stop offset="0.45" stop-color="#A47CFF" />
      <stop offset="1" stop-color="#3CE0B5" />
    </linearGradient>
    <linearGradient id="outline-gradient" x1="20" y1="20" x2="100" y2="100" gradientUnits="userSpaceOnUse">
      <stop offset="0" stop-color="#FF9ECF" stop-opacity="0.9" />
      <stop offset="0.5" stop-color="#A47CFF" stop-opacity="0.9" />
      <stop offset="1" stop-color="#3CE0B5" stop-opacity="0.9" />
    </linearGradient>
    <filter id="soft-glow" x="-40" y="-40" width="200" height="200" filterUnits="userSpaceOnUse" color-interpolation-filters="sRGB">
      <feGaussianBlur stdDeviation="12" result="blur" />
    </filter>
  </defs>
  <g opacity="0.85">
    <circle cx="60" cy="60" r="44" fill="#0B1024" />
    <circle cx="60" cy="60" r="40" fill="#0F1632" />
    <circle cx="60" cy="60" r="38" fill="url(#core-glow)" opacity="0.7" />
  </g>
  <g filter="url(#soft-glow)" opacity="0.55">
    <circle cx="60" cy="60" r="38" fill="url(#petal-gradient)" />
  </g>
  <g>
    <ellipse cx="60" cy="28" rx="14" ry="32" fill="url(#petal-gradient)" opacity="0.88" />
    <ellipse cx="60" cy="92" rx="14" ry="32" fill="url(#petal-gradient)" opacity="0.82" />
    <ellipse cx="28" cy="60" rx="14" ry="32" transform="rotate(60 28 60)" fill="url(#petal-gradient)" opacity="0.82" />
    <ellipse cx="92" cy="60" rx="14" ry="32" transform="rotate(60 92 60)" fill="url(#petal-gradient)" opacity="0.82" />
    <ellipse cx="28" cy="60" rx="14" ry="32" transform="rotate(120 28 60)" fill="url(#petal-gradient)" opacity="0.82" />
    <ellipse cx="92" cy="60" rx="14" ry="32" transform="rotate(120 92 60)" fill="url(#petal-gradient)" opacity="0.82" />
  </g>
  <circle cx="60" cy="60" r="16" fill="#0B1024" opacity="0.9" />
  <circle cx="60" cy="60" r="10" fill="url(#petal-gradient)" opacity="0.95" />
  <circle cx="60" cy="60" r="6" fill="#FFFFFF" opacity="0.85" />
  <circle cx="60" cy="60" r="45" stroke="url(#outline-gradient)" stroke-opacity="0.8" stroke-width="2" />
</svg>
